/* XPM */
static char *_2d880614a5d31eb761e8cdea3f7e484[] = {
/* columns rows colors chars-per-pixel */
"21 21 2 1 ",
"  c None",
". c white",
/* pixels */
"                     ",
"                     ",
"          .          ",
"         ...         ",
"        .....        ",
"       .......       ",
"      .........      ",
"     ..........      ",
"    .....  .... .    ",
"   .....    .. ...   ",
"  .....       .....  ",
"   ... ..    .....   ",
"    . ....  .....    ",
"      ..........     ",
"      .........      ",
"       .......       ",
"        .....        ",
"         ...         ",
"          .          ",
"                     ",
"                     "
};
