/* XPM */
static char *_36a8011fe8e7a06db85fc09c5ac770e[] = {
/* columns rows colors chars-per-pixel */
"21 21 2 1 ",
"  c None",
". c white",
/* pixels */
"         ...         ",
"       .......       ",
"     ..       .      ",
"     .         .     ",
"    ..         ..    ",
"    .           .    ",
"   ..           ..   ",
"   .             .   ",
"   . . ..   .. . .   ",
"  .. .         . ..  ",
"  .  .         .  .  ",
"  .   .       .   .  ",
"  .   .       .   .  ",
"  .               .  ",
"  .  .         .  .  ",
"  .  .         .  .  ",
"   . .         . .   ",
"   ...         ...   ",
"     ..       ...    ",
"      .........      ",
"         ...         "
};
